<svg width="24" height="24" viewBox="0 0 24 24" fill="none" xmlns="http://www.w3.org/2000/svg">
<path d="M6.70433 4.84886V5.96504H1.9043V21.3541H22.0958V5.96504H17.2933V4.84886C17.2933 4.26459 17.0613 3.70426 16.6481 3.29112C16.235 2.87798 15.6746 2.64587 15.0903 2.64587H8.89512C8.31298 2.64911 7.75569 2.88264 7.34519 3.29543C6.9347 3.70822 6.70432 4.26671 6.70433 4.84886ZM16.8014 20.3652H2.8932V13.1468C4.69022 13.5501 6.51208 13.833 8.34677 13.9937C8.64295 14.0206 8.94161 14.0427 9.24269 14.0622C9.33775 14.7258 9.66892 15.3328 10.1754 15.7719C10.6819 16.2111 11.3297 16.4528 12 16.4528C12.6703 16.4528 13.3182 16.2111 13.8247 15.7719C14.3312 15.3328 14.6624 14.7258 14.7574 14.0622C15.0561 14.0427 15.3572 14.0206 15.6534 13.9937C17.4881 13.833 19.3099 13.5501 21.1069 13.1468V20.3652H16.8014ZM11.9988 14.1528C12.5797 14.1528 13.1598 14.1406 13.7391 14.1161C13.6383 14.5009 13.4129 14.8414 13.098 15.0844C12.7831 15.3274 12.3966 15.4592 11.9988 15.4592C11.6011 15.4592 11.2146 15.3274 10.8997 15.0844C10.5848 14.8414 10.3593 14.5009 10.2585 14.1161C10.8386 14.1406 11.4211 14.1528 11.9988 14.1528ZM10.2854 13.1272C10.3986 12.7589 10.6269 12.4366 10.9369 12.2076C11.2468 11.9786 11.6221 11.8551 12.0074 11.8551C12.3928 11.8551 12.7679 11.9786 13.0778 12.2076C13.3878 12.4366 13.6162 12.7589 13.7295 13.1272C13.1534 13.1517 12.5823 13.1639 12.016 13.1639C11.4498 13.1639 10.8704 13.1517 10.2781 13.1272H10.2854ZM21.1143 12.1334C19.2903 12.5527 17.4394 12.8455 15.575 13.0097C15.2959 13.0342 15.0144 13.0538 14.7329 13.0734C14.5999 12.4488 14.2565 11.8889 13.7602 11.4872C13.2638 11.0855 12.6448 10.8663 12.0062 10.8663C11.3677 10.8663 10.7485 11.0855 10.2522 11.4872C9.75582 11.8889 9.41243 12.4488 9.27938 13.0734C8.99789 13.0538 8.7188 13.0342 8.43975 13.0097C6.57535 12.8455 4.72454 12.5527 2.90049 12.1334V6.9515H21.1143V12.1334ZM8.90971 3.63967H15.105C15.4245 3.64348 15.7299 3.7721 15.9559 3.99805C16.1818 4.22399 16.3104 4.52935 16.3142 4.84886V5.96504H7.70053V4.84886C7.70429 4.5306 7.83196 4.22633 8.05634 4.00059C8.28071 3.77484 8.58418 3.64537 8.90242 3.63967H8.90971Z" fill="#222222"/>
</svg>
