<svg width="24" height="24" viewBox="0 0 24 24" fill="none" xmlns="http://www.w3.org/2000/svg">
<path d="M4.75262 15.6141L3.44807 16.3656L3.93762 17.2223L5.24218 16.4684C5.54213 16.921 5.88657 17.3424 6.27028 17.7266C6.65458 18.1118 7.07691 18.4571 7.53086 18.7571L6.77693 20.0617L7.63365 20.5513L8.38519 19.2491C9.36045 19.7345 10.4236 20.0184 11.511 20.0838V21.5916H12.4901V20.0838C13.5775 20.0184 14.6406 19.7345 15.6159 19.2491L16.3673 20.5513L17.224 20.0617L16.4701 18.7571C16.924 18.4571 17.3464 18.1118 17.7307 17.7266C18.1144 17.3424 18.4588 16.921 18.7588 16.4684L20.0635 17.2223L20.553 16.3656L19.2483 15.6141C19.7334 14.6388 20.0173 13.5757 20.0831 12.4883H21.5908V11.5092H20.0831C20.0177 10.4218 19.7338 9.35871 19.2483 8.38345L20.553 7.62953L20.0635 6.77526L18.7588 7.52673C18.4582 7.07463 18.1138 6.65321 17.7307 6.26858C17.3457 5.88483 16.9234 5.54044 16.4701 5.24051L17.224 3.93585L16.3673 3.4463L15.6159 4.75096C14.6408 4.26482 13.5777 3.98011 12.4901 3.91383V2.40845H11.511V3.91383C10.4234 3.98011 9.36032 4.26482 8.38519 4.75096L7.63365 3.4463L6.77693 3.93585L7.53086 5.24051C7.07753 5.54044 6.65526 5.88483 6.27028 6.26858C5.88715 6.65321 5.54275 7.07463 5.24218 7.52673L3.93762 6.77526L3.44807 7.62953L4.75262 8.38345C4.26648 9.35858 3.98179 10.4217 3.91551 11.5092H2.41016V12.4883H3.91551C3.98206 13.5759 4.26673 14.6389 4.75262 15.6141ZM6.97521 6.95885C7.63494 6.29499 8.4195 5.76814 9.28362 5.40863C10.1477 5.04912 11.0744 4.86404 12.0103 4.86404C12.9463 4.86404 13.8728 5.04912 14.7369 5.40863C15.6011 5.76814 16.3856 6.29499 17.0453 6.95885C17.4865 7.39607 17.8675 7.88994 18.1786 8.42751C18.8039 9.51033 19.1332 10.7387 19.1332 11.9891C19.1333 13.2395 18.8043 14.4679 18.1791 15.5508C17.554 16.6337 16.6548 17.5329 15.5719 18.1582C14.489 18.7834 13.2607 19.1126 12.0103 19.1126C10.7599 19.1126 9.53152 18.7834 8.44865 18.1582C7.36579 17.5329 6.4666 16.6337 5.84145 15.5508C5.2163 14.4679 4.88724 13.2395 4.88732 11.9891C4.88741 10.7387 5.21663 9.51033 5.84193 8.42751C6.15302 7.88994 6.53409 7.39607 6.97521 6.95885Z" fill="#222222"/>
<path d="M12.0102 17.2885C13.0574 17.2885 14.0809 16.9779 14.9516 16.3962C15.8223 15.8144 16.501 14.9875 16.9017 14.02C17.3024 13.0526 17.4073 11.9881 17.203 10.961C16.9987 9.93398 16.4944 8.9906 15.7539 8.25014C15.0135 7.50969 14.0702 7.00544 13.0431 6.80115C12.0161 6.59686 10.9515 6.70171 9.98401 7.10244C9.01657 7.50317 8.18973 8.18177 7.60796 9.05245C7.02619 9.92313 6.71562 10.9468 6.71562 11.9939C6.71757 13.3975 7.27605 14.7431 8.26854 15.7356C9.26104 16.7281 10.6066 17.2865 12.0102 17.2885ZM7.73393 12.4884H11.1608L9.44737 15.4453C8.97507 15.0955 8.57936 14.6526 8.28468 14.1441C7.99 13.6356 7.8026 13.0721 7.73393 12.4884ZM10.2992 15.9446L12.0126 12.9828L13.7261 15.9446C13.1853 16.1795 12.6021 16.3007 12.0126 16.3007C11.4231 16.3007 10.8399 16.1795 10.2992 15.9446ZM14.573 15.4551L12.8595 12.4982H16.2864C16.2165 13.0802 16.0284 13.6418 15.7337 14.1485C15.4391 14.6553 15.0441 15.0966 14.573 15.4453V15.4551ZM16.2864 11.5093H12.8595L14.573 8.55238C15.0445 8.9008 15.4397 9.34197 15.7343 9.8488C16.029 10.3556 16.2169 10.9174 16.2864 11.4995V11.5093ZM13.7212 8.05303L12.0077 11.0148L10.2943 8.05303C10.835 7.81816 11.4182 7.69696 12.0077 7.69696C12.5972 7.69696 13.1804 7.81816 13.7212 8.05303ZM9.44737 8.54258L11.1608 11.4995H7.73393C7.80217 10.9156 7.98949 10.352 8.2842 9.84342C8.57891 9.33483 8.97476 8.89209 9.44737 8.54258Z" fill="#222222"/>
</svg>
