<svg width="24" height="24" viewBox="0 0 24 24" fill="none" xmlns="http://www.w3.org/2000/svg">
<path d="M8.13927 5.90135C8.13733 6.66523 8.36206 7.4125 8.78504 8.04858C9.20801 8.68467 9.81015 9.18095 10.5153 9.47462C11.2205 9.76829 11.997 9.84612 12.7464 9.69829C13.4958 9.55045 14.1846 9.18359 14.7254 8.64414C15.2662 8.10468 15.6348 7.41689 15.7846 6.66783C15.9343 5.91878 15.8585 5.14214 15.5666 4.43622C15.2747 3.7303 14.78 3.12685 14.145 2.70226C13.51 2.27767 12.7633 2.05103 11.9994 2.05103C10.9777 2.05231 9.99806 2.45807 9.27471 3.17959C8.55135 3.90111 8.14315 4.87968 8.13927 5.90135ZM11.9994 3.03013C12.5673 3.03013 13.1223 3.19853 13.5945 3.51402C14.0667 3.82952 14.4347 4.27795 14.652 4.80259C14.8693 5.32724 14.9262 5.90455 14.8154 6.46151C14.7046 7.01848 14.4312 7.53007 14.0297 7.93162C13.6281 8.33317 13.1166 8.60663 12.5596 8.71742C12.0026 8.8282 11.4253 8.77134 10.9007 8.55402C10.376 8.3367 9.92749 7.96869 9.61199 7.49652C9.2965 7.02435 9.12818 6.46923 9.12818 5.90135C9.12882 5.14006 9.43151 4.41012 9.96983 3.8718C10.5082 3.33348 11.2381 3.03078 11.9994 3.03013Z" fill="#222222"/>
<path d="M17.0344 16.0498C17.0325 14.7152 16.5013 13.4359 15.5574 12.4925C14.6135 11.549 13.334 11.0185 11.9994 11.0172C10.6651 11.0185 9.38578 11.5491 8.44227 12.4926C7.49875 13.4361 6.96809 14.7155 6.9668 16.0498V21.9489H17.0344V16.0498ZM16.0553 20.96H7.97769V16.0498C8.03978 15.0207 8.49233 14.0542 9.24293 13.3475C9.99353 12.6408 10.9856 12.2473 12.0165 12.2473C13.0474 12.2473 14.0395 12.6408 14.7901 13.3475C15.5407 14.0542 15.9932 15.0207 16.0553 16.0498V20.96Z" fill="#222222"/>
</svg>
