<svg width="32" height="32" viewBox="0 0 32 32" fill="none" xmlns="http://www.w3.org/2000/svg">
<path d="M18.5591 28V16.1412C18.5591 12.9098 19.4974 10.2588 21.374 8.18824C23.2507 6.08628 25.7927 4.6902 29 4V9.27059C28.0105 9.55294 27.2087 9.89804 26.5945 10.3059C25.9803 10.7137 25.5026 11.2 25.1614 11.7647C24.8202 12.3294 24.5984 12.9882 24.4961 13.7412C24.3937 14.4627 24.3425 15.2627 24.3425 16.1412V17.4118H29V28H18.5591ZM3 28V16.1412C3 12.9098 3.93832 10.2588 5.81496 8.18824C7.6916 6.08628 10.2336 4.6902 13.4409 4V9.27059C12.4514 9.55294 11.6496 9.89804 11.0354 10.3059C10.4213 10.7137 9.94357 11.2 9.60236 11.7647C9.29528 12.3294 9.07349 12.9882 8.93701 13.7412C8.83465 14.4627 8.78346 15.2627 8.78346 16.1412V17.4118H13.4409V28H3Z" fill="#F15C43"/>
</svg>
